<?xml version="1.0" encoding="UTF-8" standalone="no"?>
<!-- Created with Inkscape (http://www.inkscape.org/) -->

<svg
   xmlns:dc="http://purl.org/dc/elements/1.1/"
   xmlns:cc="http://creativecommons.org/ns#"
   xmlns:rdf="http://www.w3.org/1999/02/22-rdf-syntax-ns#"
   xmlns:svg="http://www.w3.org/2000/svg"
   xmlns="http://www.w3.org/2000/svg"
   xmlns:sodipodi="http://sodipodi.sourceforge.net/DTD/sodipodi-0.dtd"
   xmlns:inkscape="http://www.inkscape.org/namespaces/inkscape"
   width="340"
   height="102.49985"
   id="svg3161"
   version="1.1"
   inkscape:version="0.48.5 r10040"
   sodipodi:docname="Moog Music Logo 3.svg">
  <defs
     id="defs3163" />
  <sodipodi:namedview
     id="base"
     pagecolor="#ffffff"
     bordercolor="#666666"
     borderopacity="1.0"
     inkscape:pageopacity="0.0"
     inkscape:pageshadow="2"
     inkscape:zoom="4.9718301"
     inkscape:cx="175.0001"
     inkscape:cy="52.499878"
     inkscape:document-units="px"
     inkscape:current-layer="g3005"
     showgrid="false"
     fit-margin-top="2.5"
     fit-margin-left="2.5"
     fit-margin-right="2.5"
     fit-margin-bottom="2.5"
     inkscape:window-width="1920"
     inkscape:window-height="1028"
     inkscape:window-x="-8"
     inkscape:window-y="-8"
     inkscape:window-maximized="1">
    <inkscape:grid
       type="xygrid"
       id="grid3178"
       empspacing="5"
       visible="true"
       enabled="true"
       snapvisiblegridlinesonly="true"
       originx="-7.4998742px"
       originy="-8.872049px" />
  </sodipodi:namedview>
  <metadata
     id="metadata3166">
    <rdf:RDF>
      <cc:Work
         rdf:about="">
        <dc:format>image/svg+xml</dc:format>
        <dc:type
           rdf:resource="http://purl.org/dc/dcmitype/StillImage" />
        <dc:title></dc:title>
      </cc:Work>
    </rdf:RDF>
  </metadata>
  <g
     inkscape:label="Ebene 1"
     inkscape:groupmode="layer"
     id="layer1"
     transform="translate(-450.81944,-516.0762)">
    <g
       transform="matrix(1.2870364,0,0,-1.2870364,667.79255,334.16811)"
       id="g3005">
      <path
         id="path3007"
         style="fill:#000000;fill-opacity:1;fill-rule:nonzero;stroke:none"
         d="m 5.3667667,-192.4514 c -10.3806046,0 -18.8227857,8.44121 -18.8227857,18.82181 0,10.3777 8.4421811,18.82182 18.8227857,18.82182 10.3786643,0 18.8218153,-8.44412 18.8218153,-18.82182 0,-10.3806 -8.443151,-18.82181 -18.8218153,-18.82181 m 48.7747803,-0.061 c -7.77115,0 -13.257695,3.05163 -16.315149,9.06666 -2.409697,4.74764 -2.510545,9.78618 -2.510545,9.83564 0,0.0262 0.107636,5.03757 2.508605,9.73479 3.056485,5.97914 8.543029,9.00944 16.317089,9.00944 7.790544,0 13.288725,-2.94012 16.335512,-8.74084 2.389334,-4.54691 2.485334,-9.36921 2.485334,-9.41672 -0.0048,-0.77867 -0.328728,-19.48897 -18.820846,-19.48897 m -172.016467,17.3886 0,-26.27976 0,-0.0116 9.25576,0 0,26.29721 c 0,0.0398 0.10376,5.30812 2.63272,10.26909 3.20874,6.29624 8.969707,9.49042 17.123888,9.49042 8.151272,0 13.91321,-3.19418 17.123877,-9.49042 2.532848,-4.96776 2.629817,-10.22933 2.629817,-10.28364 l 0,-26.28266 9.258665,0 0,7.19709 c 5.114182,-4.63515 11.622787,-7.18546 18.579392,-7.18546 9.412846,0 18.210905,4.84074 23.320238,12.71952 5.106424,-7.8846 13.9035129,-12.72727 23.3173297,-12.72727 10.0392703,0 19.3541793,5.53406 24.2404803,14.23515 0.01454,-0.0232 0.0766,-0.16097 0.0766,-0.16097 3.23006,-6.47951 10.096483,-14.19733 24.457693,-14.19733 7.586908,0 14.035391,2.36412 18.820846,6.82763 l 0,-8.13673 c -0.01648,-1.67369 -0.580849,-7.16606 -7.156363,-7.16606 l -36.919267,0 0,-9.0269 36.919267,0 c 8.333575,0 12.349089,4.52848 14.247755,8.3297 1.879273,3.75757 1.938425,7.44242 1.938425,7.85066 l 0,54.42327 -9.029817,0 0,-3.92242 c -4.785455,4.256 -11.236848,6.51344 -18.820846,6.51344 -14.359271,0 -21.221815,-7.68 -24.452844,-14.1246 0,0 -0.02716,-0.0602 -0.06691,-0.14448 -4.884363,8.72242 -14.207028,14.2623 -24.2550263,14.2623 -9.4138168,0 -18.2196337,-4.84752 -23.3250867,-12.73406 -3.746909,5.7823 -9.564121,10.07127 -16.206544,11.82836 l -1.134544,0.29964 0,-9.27904 c 0,0 0.0038,-3.25526 0.0038,-4.12314 -0.933818,-0.46642 -14.666664,-7.3154 -14.666664,-7.3154 l 0,-9.04436 14.660846,7.7857 0,-0.76412 c 0.002,0.002 0.0058,0.002 0.0096,0.004 l 0,-0.98522 c -0.0038,-0.002 -0.0096,-0.006 -0.0096,-0.006 l 0,-0.54787 -14.660846,-7.78376 0,-9.00751 20.096965,10.73454 0,17.37988 c 4.312243,-3.45891 6.858667,-8.64097 6.858667,-14.21091 0,-10.06642 -8.191999,-18.25745 -18.26424,-18.25745 -10.067392,0 -18.259391,8.19103 -18.259391,18.25745 0,10.0703 8.191999,18.25939 18.259391,18.25939 1.307151,0 2.62012,-0.15224 3.912726,-0.43442 l 0,9.67564 c -1.30812,0.18812 -2.62012,0.28994 -3.912726,0.28994 -9.450666,0 -18.262301,-4.86886 -23.361936,-12.79128 -3.688726,5.9937 -10.788847,12.51782 -24.229815,12.51782 -13.571892,0 -20.685582,-6.63564 -24.368492,-12.7583 -3.66448,6.17114 -10.7646,12.90666 -24.33357,13.09478 -8.11927,0.11346 -14.77527,-2.2497 -19.81964,-6.98666 l 0,3.9389 -9.25672,0 0,-52.60314 9.25672,0 0,0.0116 0,26.29722 c 0,0.0378 0.1028,5.3023 2.6308,10.26715 3.20969,6.29624 8.97163,9.48848 17.12387,9.48848 8.15224,0 13.91418,-3.19224 17.12484,-9.48848 2.53382,-4.96776 2.62982,-10.22934 2.62982,-10.28461"
         inkscape:connector-curvature="0" />
      <g
         id="g3888"
         transform="matrix(0.46618728,0,0,-0.46618728,-35.331605,-41.108473)">
        <g
           id="g4010"
           transform="matrix(0.83333333,0,0,0.83333333,39.166558,39.999996)">
          <path
             inkscape:connector-curvature="0"
             d="m 269.81345,234.86161 -2.81164,0 0,-14.7206 5.46257,0 c 3.55483,0 5.53743,1.17083 5.53743,4.37071 0,2.66562 -1.57219,3.7313 -3.4716,3.94728 l 3.4716,6.40261 -3.14166,0 -3.22487,-6.29462 -1.82183,0 z m 0,-8.5368 2.48455,0 c 2.06578,0 2.81169,-0.68773 2.81169,-2.07738 0,-1.38681 -0.9067,-1.81308 -2.97253,-1.81308 l -2.32092,0 0,3.89046 -0.002,0 z"
             id="path3767-1"
             style="fill:#000000"
             sodipodi:nodetypes="cccssccccccccsssccc" />
          <path
             transform="matrix(6.5714286,0,0,6.5714286,-1424.5714,-1226.4286)"
             inkscape:connector-curvature="0"
             style="fill:none;stroke:#000000;stroke-width:0.30434781;stroke-linecap:butt;stroke-linejoin:miter;stroke-miterlimit:4;stroke-opacity:1;stroke-dashoffset:0"
             d="m 260,221.25 c 0,0.9665 -0.7835,1.75 -1.75,1.75 -0.9665,0 -1.75,-0.7835 -1.75,-1.75 0,-0.9665 0.7835,-1.75 1.75,-1.75 0.9665,0 1.75,0.7835 1.75,1.75 z"
             id="path3879" />
        </g>
      </g>
    </g>
  </g>
</svg>
